<svg width="1920" height="1080" viewBox="0 0 1920 1080" xmlns="http://www.w3.org/2000/svg"><rect width="1920" height="1080" fill="#ffffff"/><path d="M 0,1080 C 0,1080 0,216 0,216 C 137.925641025641,227.41794871794872 275.851282051282,238.83589743589744 357,248 C 438.148717948718,257.16410256410256 462.52051282051286,264.07435897435903 525,245 C 587.4794871794871,225.925641025641 688.0666666666667,180.86666666666667 849,154 C 1009.9333333333333,127.13333333333333 1231.2128205128201,118.45897435897436 1370,144 C 1508.7871794871799,169.54102564102564 1565.0820512820515,229.2974358974359 1643,247 C 1720.9179487179485,264.7025641025641 1820.4589743589743,240.35128205128206 1920,216 C 1920,216 1920,1080 1920,1080 Z" fill="#2b4eee" opacity="0.12"/><path d="M 0,1080 C 0,1080 0,432 0,432 C 161.12820512820514,408.92820512820515 322.2564102564103,385.85641025641024 418,382 C 513.7435897435897,378.14358974358976 544.1025641025641,393.5025641025641 651,391 C 757.8974358974359,388.4974358974359 941.3333333333333,368.13333333333327 1064,395 C 1186.6666666666667,421.86666666666673 1248.5641025641025,495.9641025641026 1304,487 C 1359.4358974358975,478.0358974358974 1408.4102564102566,386.01025641025643 1510,363 C 1611.5897435897434,339.98974358974357 1765.7948717948716,385.99487179487176 1920,432 C 1920,432 1920,1080 1920,1080 Z" fill="#2b4eee" opacity="0.24"/><path d="M 0,1080 C 0,1080 0,648 0,648 C 54.5102564102564,680.5589743589744 109.0205128205128,713.1179487179487 252,691 C 394.9794871794872,668.8820512820513 626.4282051282053,592.0871794871795 717,590 C 807.5717948717947,587.9128205128205 757.2666666666665,660.5333333333334 857,677 C 956.7333333333335,693.4666666666666 1206.5051282051284,653.7794871794872 1366,629 C 1525.4948717948716,604.2205128205128 1594.7128205128206,594.348717948718 1672,600 C 1749.2871794871794,605.651282051282 1834.6435897435897,626.8256410256411 1920,648 C 1920,648 1920,1080 1920,1080 Z" fill="#2b4eee" opacity="0.36"/><path d="M 0,1080 C 0,1080 0,864 0,864 C 152.5974358974359,836.7564102564103 305.1948717948718,809.5128205128206 380,799 C 454.8051282051282,788.4871794871794 451.81794871794875,794.7051282051282 521,794 C 590.1820512820512,793.2948717948718 731.5333333333333,785.6666666666666 884,801 C 1036.4666666666667,816.3333333333334 1200.048717948718,854.6282051282051 1322,856 C 1443.951282051282,857.3717948717949 1524.2717948717948,821.8205128205128 1617,817 C 1709.7282051282052,812.1794871794872 1814.8641025641027,838.0897435897436 1920,864 C 1920,864 1920,1080 1920,1080 Z" fill="#2b4eee" opacity="0.48"/></svg>