<svg width="1920" height="1080" viewBox="0 0 1920 1080" xmlns="http://www.w3.org/2000/svg"><rect width="1920" height="1080" fill="#0c112e"/><path d="M 0,1080 C 0,1080 0,270 0,270 C 127.76923076923077,285.9051282051282 255.53846153846155,301.81025641025644 391,271 C 526.4615384615385,240.18974358974359 669.6153846153845,162.66410256410256 751,190 C 832.3846153846155,217.33589743589744 852,349.5333333333333 957,367 C 1062,384.4666666666667 1252.3846153846152,287.2025641025641 1396,231 C 1539.6153846153848,174.7974358974359 1636.4615384615386,159.65641025641028 1716,173 C 1795.5384615384614,186.34358974358972 1857.7692307692307,228.17179487179487 1920,270 C 1920,270 1920,1080 1920,1080 Z" fill="#1d439a" opacity="0.15"/><path d="M 0,1080 C 0,1080 0,540 0,540 C 41.753846153846155,484.6179487179487 83.50769230769231,429.23589743589747 203,444 C 322.4923076923077,458.76410256410253 519.723076923077,543.6743589743589 661,569 C 802.276923076923,594.3256410256411 887.5999999999999,560.0666666666667 977,525 C 1066.4,489.9333333333333 1159.8769230769233,454.0589743589744 1266,486 C 1372.1230769230767,517.9410256410256 1490.8923076923077,617.6974358974359 1602,638 C 1713.1076923076923,658.3025641025641 1816.5538461538463,599.1512820512821 1920,540 C 1920,540 1920,1080 1920,1080 Z" fill="#1d439a" opacity="0.3"/><path d="M 0,1080 C 0,1080 0,810 0,810 C 127.86410256410255,785.9948717948719 255.7282051282051,761.9897435897436 362,763 C 468.2717948717949,764.0102564102564 552.9512820512821,790.0358974358974 643,778 C 733.0487179487179,765.9641025641026 828.4666666666667,715.8666666666667 941,745 C 1053.5333333333333,774.1333333333333 1183.1820512820511,882.4974358974357 1323,911 C 1462.8179487179489,939.5025641025643 1612.805128205128,888.1435897435898 1714,858 C 1815.194871794872,827.8564102564102 1867.5974358974358,818.928205128205 1920,810 C 1920,810 1920,1080 1920,1080 Z" fill="#1d439a" opacity="0.44999999999999996"/></svg>