<svg version="1.1" xmlns="http://www.w3.org/2000/svg" viewBox="0 0 1087 1060" width="1087" height="1060" filter="invert(93%) hue-rotate(180deg)">
  <!-- svg-source:excalidraw -->
  
  <defs>
    <style class="style-fonts">
      @font-face {
        font-family: "Virgil";
        src: url("https://excalidraw.com/Virgil.woff2");
      }
      @font-face {
        font-family: "Cascadia";
        src: url("https://excalidraw.com/Cascadia.woff2");
      }
      @font-face {
        font-family: "Assistant";
        src: url("https://excalidraw.com/Assistant-Regular.woff2");
      }
    </style>
    
  </defs>
  <g stroke-linecap="round" transform="translate(10 10) rotate(0 75 32.5)"><path d="M0 0 C31.41 -0.39, 62.5 1.3, 150 0 M0 0 C35.45 0.59, 71.47 0.29, 150 0 M150 0 C151.08 22.44, 149.49 47.33, 150 65 M150 0 C149.07 25.37, 149.4 49.75, 150 65 M150 65 C106 63.96, 59.76 65.25, 0 65 M150 65 C116.08 65.55, 83.9 64.82, 0 65 M0 65 C-0.38 44.35, 1.08 26.65, 0 0 M0 65 C1 52.55, -0.21 38.38, 0 0" stroke="#1e1e1e" stroke-width="2" fill="none"></path></g><g transform="translate(55.44001770019531 32.5) rotate(0 29.559982299804688 10)"><text x="29.559982299804688" y="14.016" font-family="Virgil, Segoe UI Emoji" font-size="16px" fill="#000" text-anchor="middle" style="white-space: pre;" direction="ltr" dominant-baseline="alphabetic">Usuario</text></g><g stroke-linecap="round" transform="translate(10 985) rotate(0 75 32.5)"><path d="M0 0 C41.49 1.53, 83.7 -1.04, 150 0 M0 0 C35.39 -0.08, 70.33 -0.08, 150 0 M150 0 C150.46 20.96, 152.23 38.48, 150 65 M150 0 C149.78 17.72, 149.8 35.72, 150 65 M150 65 C103.64 64.17, 55.1 63.27, 0 65 M150 65 C99.97 64.33, 49.51 65.54, 0 65 M0 65 C1.42 41.5, -1.9 15.1, 0 0 M0 65 C-0.89 49.48, 0.01 33.43, 0 0" stroke="#1e1e1e" stroke-width="2" fill="none"></path></g><g transform="translate(55.44001770019531 1007.5) rotate(0 29.559982299804688 10)"><text x="29.559982299804688" y="14.016" font-family="Virgil, Segoe UI Emoji" font-size="16px" fill="#000" text-anchor="middle" style="white-space: pre;" direction="ltr" dominant-baseline="alphabetic">Usuario</text></g><g stroke-linecap="round" transform="translate(312 10) rotate(0 75 32.5)"><path d="M0 0 C38.91 -2.32, 79 -0.84, 150 0 M0 0 C39.18 0.36, 77.31 1.85, 150 0 M150 0 C151.71 14.97, 149.58 32.95, 150 65 M150 0 C150.02 20.57, 150.11 43.07, 150 65 M150 65 C112.5 64.24, 78.87 63.57, 0 65 M150 65 C104.66 64.43, 60.04 63.91, 0 65 M0 65 C-2.38 47.9, -1.71 33.19, 0 0 M0 65 C0.79 39.48, 0.99 15.76, 0 0" stroke="#1e1e1e" stroke-width="2" fill="none"></path></g><g transform="translate(321.8960494995117 32.5) rotate(0 65.10395050048828 10)"><text x="65.10395050048828" y="14.016" font-family="Virgil, Segoe UI Emoji" font-size="16px" fill="#000" text-anchor="middle" style="white-space: pre;" direction="ltr" dominant-baseline="alphabetic">FrotEnd(Angular)</text></g><g stroke-linecap="round" transform="translate(312 985) rotate(0 75 32.5)"><path d="M0 0 C51.54 1.09, 104.92 2.19, 150 0 M0 0 C34.32 1.85, 68.02 1.05, 150 0 M150 0 C150.16 21.42, 151.09 44.16, 150 65 M150 0 C150.12 17.09, 149.41 33.07, 150 65 M150 65 C105.08 62.89, 58.81 64.86, 0 65 M150 65 C116.44 65.72, 80.84 66.45, 0 65 M0 65 C-0.63 43.08, 2.25 16.92, 0 0 M0 65 C0.4 46.51, 0.18 27.37, 0 0" stroke="#1e1e1e" stroke-width="2" fill="none"></path></g><g transform="translate(360.98401641845703 1007.5) rotate(0 26.01598358154297 10)"><text x="26.01598358154297" y="14.016" font-family="Virgil, Segoe UI Emoji" font-size="16px" fill="#000" text-anchor="middle" style="white-space: pre;" direction="ltr" dominant-baseline="alphabetic">Cliente</text></g><g stroke-linecap="round" transform="translate(663 10) rotate(0 75 32.5)"><path d="M0 0 C32.7 1.08, 65.66 1.2, 150 0 M0 0 C33.85 -1.18, 68.93 -0.3, 150 0 M150 0 C150.4 13.52, 148.93 27.09, 150 65 M150 0 C149.47 15.43, 150.11 29.77, 150 65 M150 65 C111.22 64.35, 70.92 63.98, 0 65 M150 65 C97.13 65.66, 45.73 63.99, 0 65 M0 65 C2.03 45.83, 0.2 29.07, 0 0 M0 65 C0.06 50.35, -0.85 35.06, 0 0" stroke="#1e1e1e" stroke-width="2" fill="none"></path></g><g transform="translate(685.4240341186523 32.5) rotate(0 52.575965881347656 10)"><text x="52.575965881347656" y="14.016" font-family="Virgil, Segoe UI Emoji" font-size="16px" fill="#000" text-anchor="middle" style="white-space: pre;" direction="ltr" dominant-baseline="alphabetic">Backend(.net)</text></g><g stroke-linecap="round" transform="translate(663 985) rotate(0 75 32.5)"><path d="M0 0 C43.18 0.38, 87.81 -0.58, 150 0 M0 0 C57 0.89, 112.29 -0.17, 150 0 M150 0 C149.24 17.38, 148.87 34.91, 150 65 M150 0 C149.65 22.84, 149.2 47.6, 150 65 M150 65 C114.8 65.46, 83.43 66.99, 0 65 M150 65 C106.1 65.09, 60.76 65.42, 0 65 M0 65 C-0.74 40.79, -2.02 15.77, 0 0 M0 65 C-0.71 42.8, -0.84 22.22, 0 0" stroke="#1e1e1e" stroke-width="2" fill="none"></path></g><g transform="translate(706.9600219726562 1007.5) rotate(0 31.03997802734375 10)"><text x="31.03997802734375" y="14.016" font-family="Virgil, Segoe UI Emoji" font-size="16px" fill="#000" text-anchor="middle" style="white-space: pre;" direction="ltr" dominant-baseline="alphabetic">Servidor</text></g><g stroke-linecap="round" transform="translate(927 10) rotate(0 75 32.5)"><path d="M0 0 C51.37 -0.67, 107.15 -1.7, 150 0 M0 0 C43.78 -1.5, 89.06 -1.03, 150 0 M150 0 C148.4 19.7, 150.96 37.75, 150 65 M150 0 C149.62 20.84, 149.28 41, 150 65 M150 65 C102.45 66.71, 52.84 64.25, 0 65 M150 65 C94.33 62.93, 39.85 64.37, 0 65 M0 65 C-1.43 49.05, 0.7 31.09, 0 0 M0 65 C-0.25 45.9, -0.1 26.54, 0 0" stroke="#1e1e1e" stroke-width="2" fill="none"></path></g><g transform="translate(949.1280288696289 32.5) rotate(0 52.871971130371094 10)"><text x="52.871971130371094" y="14.016" font-family="Virgil, Segoe UI Emoji" font-size="16px" fill="#000" text-anchor="middle" style="white-space: pre;" direction="ltr" dominant-baseline="alphabetic">BD(MongoDB)</text></g><g stroke-linecap="round" transform="translate(927 985) rotate(0 75 32.5)"><path d="M0 0 C55.24 -0.98, 107.35 0.64, 150 0 M0 0 C57.61 0.57, 115.87 -0.16, 150 0 M150 0 C150.85 18.41, 149.88 39.32, 150 65 M150 0 C148.98 14.4, 149.97 28.04, 150 65 M150 65 C104.19 65.4, 59.9 67.53, 0 65 M150 65 C120.31 64.87, 88.5 63.95, 0 65 M0 65 C1.11 42.76, 0.45 17.57, 0 0 M0 65 C-0.01 50.16, 0.32 33.79, 0 0" stroke="#1e1e1e" stroke-width="2" fill="none"></path></g><g transform="translate(946.6400299072266 1007.5) rotate(0 55.35997009277344 10)"><text x="55.35997009277344" y="14.016" font-family="Virgil, Segoe UI Emoji" font-size="16px" fill="#000" text-anchor="middle" style="white-space: pre;" direction="ltr" dominant-baseline="alphabetic">BaseDeDatos</text></g><g stroke-linecap="round"><g transform="translate(85 75) rotate(0 0 455)"><path d="M0 0 C2.8 282.56, 3.51 563.74, 0 910 M0 0 C-1.21 254.39, -1.2 508.89, 0 910" stroke="#999" stroke-width="1" fill="none"></path></g></g><mask></mask><g stroke-linecap="round"><g transform="translate(387 75) rotate(0 0 455)"><path d="M0 0 C0.62 234.56, -0.24 470.32, 0 910 M0 0 C0 296.77, 0.03 594.31, 0 910" stroke="#999" stroke-width="1" fill="none"></path></g></g><mask></mask><g stroke-linecap="round"><g transform="translate(738 75) rotate(0 0 455)"><path d="M0 0 C2.98 308.92, 3.35 618.36, 0 910 M0 0 C0.11 230.69, -0.18 460.93, 0 910" stroke="#999" stroke-width="1" fill="none"></path></g></g><mask></mask><g stroke-linecap="round"><g transform="translate(1002 75) rotate(0 0 455)"><path d="M0 0 C-0.53 189.34, -1.11 378.71, 0 910 M0 0 C0.16 213.98, 0.42 427.53, 0 910" stroke="#999" stroke-width="1" fill="none"></path></g></g><mask></mask><g mask="url(#mask-VdSYdk-hZh_7yGUEmVGve)" stroke-linecap="round"><g transform="translate(86.5 109) rotate(0 148 0)"><path d="M0 -0.56 C49.4 -0.74, 246.67 -1, 296.02 -0.78 M-1.46 1.76 C47.82 1.68, 245.6 0.84, 295.09 0.35" stroke="#1e1e1e" stroke-width="2" fill="none"></path></g><g transform="translate(86.5 109) rotate(0 148 0)"><path d="M271.65 9.06 C276.95 6.77, 282.84 4.63, 295.09 0.35 M271.65 9.06 C280.26 5.07, 288.33 3.04, 295.09 0.35" stroke="#1e1e1e" stroke-width="2" fill="none"></path></g><g transform="translate(86.5 109) rotate(0 148 0)"><path d="M271.54 -8.05 C276.91 -5.77, 282.83 -3.34, 295.09 0.35 M271.54 -8.05 C280.09 -5.82, 288.19 -1.63, 295.09 0.35" stroke="#1e1e1e" stroke-width="2" fill="none"></path></g></g><mask id="mask-VdSYdk-hZh_7yGUEmVGve"><rect x="0" y="0" fill="#fff" width="482.5" height="209"></rect><rect x="137.9720458984375" y="89" fill="#000" width="193.055908203125" height="40" opacity="1"></rect></mask><g transform="translate(137.9720458984375 89) rotate(0 95.80672809959856 20.447008432432426)"><text x="96.5279541015625" y="14.016" font-family="Virgil, Segoe UI Emoji" font-size="16px" fill="#1e1e1e" text-anchor="middle" style="white-space: pre;" direction="ltr" dominant-baseline="alphabetic">Inicia sesión (username, </text><text x="96.5279541015625" y="34.016" font-family="Virgil, Segoe UI Emoji" font-size="16px" fill="#1e1e1e" text-anchor="middle" style="white-space: pre;" direction="ltr" dominant-baseline="alphabetic">password)</text></g><g mask="url(#mask-f0kH9N7XJhg3j-WQTHUPo)" stroke-linecap="round"><g transform="translate(388.5 153) rotate(0 172.5 0)"><path d="M0.02 -0.78 C57.54 -0.56, 287.76 0.6, 345.13 0.76 M-1.43 1.43 C55.95 1.36, 286.22 -0.99, 344.25 -0.96" stroke="#1e1e1e" stroke-width="2" fill="none"></path></g><g transform="translate(388.5 153) rotate(0 172.5 0)"><path d="M320.81 7.72 C326.58 5.33, 336.17 1.3, 344.25 -0.96 M320.81 7.72 C327.78 5.52, 334.84 2.46, 344.25 -0.96" stroke="#1e1e1e" stroke-width="2" fill="none"></path></g><g transform="translate(388.5 153) rotate(0 172.5 0)"><path d="M320.72 -9.38 C326.43 -6.64, 336.06 -5.55, 344.25 -0.96 M320.72 -9.38 C327.73 -6.19, 334.81 -3.86, 344.25 -0.96" stroke="#1e1e1e" stroke-width="2" fill="none"></path></g></g><mask id="mask-f0kH9N7XJhg3j-WQTHUPo"><rect x="0" y="0" fill="#fff" width="833.5" height="253"></rect><rect x="441.5840530395508" y="133" fill="#000" width="238.83189392089844" height="40" opacity="1"></rect></mask><g transform="translate(441.5840530395508 133) rotate(0 118.76955355377402 20.23231785065576)"><text x="119.41594696044922" y="14.016" font-family="Virgil, Segoe UI Emoji" font-size="16px" fill="#1e1e1e" text-anchor="middle" style="white-space: pre;" direction="ltr" dominant-baseline="alphabetic">Envia credenciales (username, </text><text x="119.41594696044922" y="34.016" font-family="Virgil, Segoe UI Emoji" font-size="16px" fill="#1e1e1e" text-anchor="middle" style="white-space: pre;" direction="ltr" dominant-baseline="alphabetic">password)</text></g><g mask="url(#mask-LvFm09Skqx9SQAx5HujRE)" stroke-linecap="round"><g transform="translate(739.5 197) rotate(0 129 0)"><path d="M0.13 0.76 C43.01 0.92, 214.29 0.47, 257.27 0.18 M-1.26 0.12 C42.01 0.56, 216.51 1.86, 259.6 1.81" stroke="#1e1e1e" stroke-width="2" fill="none"></path></g><g transform="translate(739.5 197) rotate(0 129 0)"><path d="M236.08 10.27 C244.5 6.48, 250.64 5.22, 259.6 1.81 M236.08 10.27 C240.57 8.35, 246.75 5.74, 259.6 1.81" stroke="#1e1e1e" stroke-width="2" fill="none"></path></g><g transform="translate(739.5 197) rotate(0 129 0)"><path d="M236.15 -6.83 C244.44 -5.46, 250.55 -1.55, 259.6 1.81 M236.15 -6.83 C240.55 -4.97, 246.72 -3.8, 259.6 1.81" stroke="#1e1e1e" stroke-width="2" fill="none"></path></g></g><mask id="mask-LvFm09Skqx9SQAx5HujRE"><rect x="0" y="0" fill="#fff" width="1097.5" height="297"></rect><rect x="789.3800506591797" y="187" fill="#000" width="158.23989868164062" height="20" opacity="1"></rect></mask><g transform="translate(789.3800506591797 187) rotate(0 79.29375318053178 10.965606494538918)"><text x="79.11994934082031" y="14.016" font-family="Virgil, Segoe UI Emoji" font-size="16px" fill="#1e1e1e" text-anchor="middle" style="white-space: pre;" direction="ltr" dominant-baseline="alphabetic">Verifica credenciales</text></g><g mask="url(#mask-h0Ma9jLqXZhFgY8ZWyr1S)" stroke-linecap="round"><g transform="translate(1000.5 241) rotate(0 -129 0)"><path d="M-0.73 0.18 C-43.74 -0.1, -214.99 -0.99, -257.95 -0.95" stroke="#1e1e1e" stroke-width="2.5" fill="none" stroke-dasharray="1.5 8"></path></g><g transform="translate(1000.5 241) rotate(0 -129 0)"><path d="M-234.44 -9.44 C-241.39 -6.85, -250.59 -5.12, -257.95 -0.95" stroke="#1e1e1e" stroke-width="2.5" fill="none" stroke-dasharray="1.5 6"></path></g><g transform="translate(1000.5 241) rotate(0 -129 0)"><path d="M-234.48 7.66 C-241.53 4.93, -250.71 1.34, -257.95 -0.95" stroke="#1e1e1e" stroke-width="2.5" fill="none" stroke-dasharray="1.5 6"></path></g></g><mask id="mask-h0Ma9jLqXZhFgY8ZWyr1S"><rect x="0" y="0" fill="#fff" width="1358.5" height="341"></rect><rect x="808.4920425415039" y="221" fill="#000" width="126.01591491699219" height="40" opacity="1"></rect></mask><g transform="translate(808.4920425415039 221) rotate(0 62.66948545053606 19.6170471691631)"><text x="63.007957458496094" y="14.016" font-family="Virgil, Segoe UI Emoji" font-size="16px" fill="#1e1e1e" text-anchor="middle" style="white-space: pre;" direction="ltr" dominant-baseline="alphabetic">Credenciales </text><text x="63.007957458496094" y="34.016" font-family="Virgil, Segoe UI Emoji" font-size="16px" fill="#1e1e1e" text-anchor="middle" style="white-space: pre;" direction="ltr" dominant-baseline="alphabetic">válidas/inválidas</text></g><g mask="url(#mask-t4digDSv2FIZJLBL-0PQu)" stroke-linecap="round"><g transform="translate(736.5 330) rotate(0 -172.5 0)"><path d="M0.05 -0.95 C-57.41 -0.91, -287.84 0.26, -345.49 0.42" stroke="#1e1e1e" stroke-width="2.5" fill="none" stroke-dasharray="1.5 8"></path></g><g transform="translate(736.5 330) rotate(0 -172.5 0)"><path d="M-322.04 -8.22 C-329.22 -6.97, -332.55 -5.57, -345.49 0.42" stroke="#1e1e1e" stroke-width="2.5" fill="none" stroke-dasharray="1.5 6"></path></g><g transform="translate(736.5 330) rotate(0 -172.5 0)"><path d="M-321.97 8.88 C-329.19 6.04, -332.54 3.34, -345.49 0.42" stroke="#1e1e1e" stroke-width="2.5" fill="none" stroke-dasharray="1.5 6"></path></g></g><mask id="mask-t4digDSv2FIZJLBL-0PQu"><rect x="0" y="0" fill="#fff" width="1181.5" height="430"></rect><rect x="483.0560302734375" y="320" fill="#000" width="161.887939453125" height="20" opacity="1"></rect></mask><g transform="translate(483.0560302734375 320) rotate(0 80.72211680486805 9.73761688396334)"><text x="80.9439697265625" y="14.016" font-family="Virgil, Segoe UI Emoji" font-size="16px" fill="#1e1e1e" text-anchor="middle" style="white-space: pre;" direction="ltr" dominant-baseline="alphabetic">Genera y envía JWT</text></g><g mask="url(#mask-aePCOrrsutt4O9C0nqKnv)" stroke-linecap="round"><g transform="translate(385.5 374) rotate(0 -148 0)"><path d="M-0.49 0.42 C-49.98 0.58, -247.69 0.24, -296.9 0.03" stroke="#1e1e1e" stroke-width="2.5" fill="none" stroke-dasharray="1.5 8"></path></g><g transform="translate(385.5 374) rotate(0 -148 0)"><path d="M-273.38 -8.46 C-279.9 -7.47, -287.7 -2.92, -296.9 0.03" stroke="#1e1e1e" stroke-width="2.5" fill="none" stroke-dasharray="1.5 6"></path></g><g transform="translate(385.5 374) rotate(0 -148 0)"><path d="M-273.43 8.65 C-279.8 4.43, -287.58 3.78, -296.9 0.03" stroke="#1e1e1e" stroke-width="2.5" fill="none" stroke-dasharray="1.5 6"></path></g></g><mask id="mask-aePCOrrsutt4O9C0nqKnv"><rect x="0" y="0" fill="#fff" width="781.5" height="474"></rect><rect x="176.0280303955078" y="364" fill="#000" width="122.94393920898438" height="20" opacity="1"></rect></mask><g transform="translate(176.0280303955078 364) rotate(0 60.776575399190165 10.247627277197381)"><text x="61.47196960449219" y="14.016" font-family="Virgil, Segoe UI Emoji" font-size="16px" fill="#1e1e1e" text-anchor="middle" style="white-space: pre;" direction="ltr" dominant-baseline="alphabetic">Guarda el JWT</text></g><g mask="url(#mask-U9e02ilSqVpQ1RCmopsYq)" stroke-linecap="round"><g transform="translate(736.5 463) rotate(0 -172.5 0)"><path d="M-0.9 0.03 C-58.27 -0.18, -287.38 -0.94, -344.72 -0.85" stroke="#1e1e1e" stroke-width="2.5" fill="none" stroke-dasharray="1.5 8"></path></g><g transform="translate(736.5 463) rotate(0 -172.5 0)"><path d="M-321.21 -9.37 C-327.22 -6.87, -334.77 -5.03, -344.72 -0.85" stroke="#1e1e1e" stroke-width="2.5" fill="none" stroke-dasharray="1.5 6"></path></g><g transform="translate(736.5 463) rotate(0 -172.5 0)"><path d="M-321.23 7.73 C-327.29 5.81, -334.84 3.21, -344.72 -0.85" stroke="#1e1e1e" stroke-width="2.5" fill="none" stroke-dasharray="1.5 6"></path></g></g><mask id="mask-U9e02ilSqVpQ1RCmopsYq"><rect x="0" y="0" fill="#fff" width="1181.5" height="563"></rect><rect x="451.4720458984375" y="453" fill="#000" width="225.055908203125" height="20" opacity="1"></rect></mask><g transform="translate(451.4720458984375 453) rotate(0 112.2211775787174 9.586449293023975)"><text x="112.5279541015625" y="14.016" font-family="Virgil, Segoe UI Emoji" font-size="16px" fill="#1e1e1e" text-anchor="middle" style="white-space: pre;" direction="ltr" dominant-baseline="alphabetic">Envia error de autenticación</text></g><g mask="url(#mask-B8YB5jrLTU0PuCbWBMYZb)" stroke-linecap="round"><g transform="translate(385.5 507) rotate(0 -148 0)"><path d="M0.28 -0.85 C-48.89 -0.76, -246.72 0.46, -295.94 0.6" stroke="#1e1e1e" stroke-width="2.5" fill="none" stroke-dasharray="1.5 8"></path></g><g transform="translate(385.5 507) rotate(0 -148 0)"><path d="M-272.49 -8.06 C-279.18 -5.96, -282.05 -2.47, -295.94 0.6" stroke="#1e1e1e" stroke-width="2.5" fill="none" stroke-dasharray="1.5 6"></path></g><g transform="translate(385.5 507) rotate(0 -148 0)"><path d="M-272.41 9.04 C-279.13 7.29, -282.01 6.92, -295.94 0.6" stroke="#1e1e1e" stroke-width="2.5" fill="none" stroke-dasharray="1.5 6"></path></g></g><mask id="mask-B8YB5jrLTU0PuCbWBMYZb"><rect x="0" y="0" fill="#fff" width="781.5" height="607"></rect><rect x="164.75604248046875" y="487" fill="#000" width="145.4879150390625" height="40" opacity="1"></rect></mask><g transform="translate(164.75604248046875 487) rotate(0 72.91605823114514 19.873450314253567)"><text x="72.74395751953125" y="14.016" font-family="Virgil, Segoe UI Emoji" font-size="16px" fill="#1e1e1e" text-anchor="middle" style="white-space: pre;" direction="ltr" dominant-baseline="alphabetic">Muestra error de </text><text x="72.74395751953125" y="34.016" font-family="Virgil, Segoe UI Emoji" font-size="16px" fill="#1e1e1e" text-anchor="middle" style="white-space: pre;" direction="ltr" dominant-baseline="alphabetic">autenticación</text></g><g mask="url(#mask-4J4qedW8GY5nLmIKQAcX8)" stroke-linecap="round"><g transform="translate(86.5 561) rotate(0 148 0)"><path d="M0.06 0.6 C49.51 0.73, 247.74 -0.08, 296.98 -0.04 M-1.37 -0.14 C47.99 0.28, 247.24 1.64, 296.55 1.48" stroke="#1e1e1e" stroke-width="2" fill="none"></path></g><g transform="translate(86.5 561) rotate(0 148 0)"><path d="M273.03 9.97 C281.7 8.84, 288.25 3.64, 296.55 1.48 M273.03 9.97 C281.54 6.43, 291.29 4.72, 296.55 1.48" stroke="#1e1e1e" stroke-width="2" fill="none"></path></g><g transform="translate(86.5 561) rotate(0 148 0)"><path d="M273.08 -7.13 C281.61 -2.72, 288.15 -2.39, 296.55 1.48 M273.08 -7.13 C281.68 -4.35, 291.42 0.28, 296.55 1.48" stroke="#1e1e1e" stroke-width="2" fill="none"></path></g></g><mask id="mask-4J4qedW8GY5nLmIKQAcX8"><rect x="0" y="0" fill="#fff" width="482.5" height="661"></rect><rect x="131.14005279541016" y="541" fill="#000" width="206.7198944091797" height="40" opacity="1"></rect></mask><g transform="translate(131.14005279541016 541) rotate(0 103.1663316643378 20.679508556912666)"><text x="103.35994720458984" y="14.016" font-family="Virgil, Segoe UI Emoji" font-size="16px" fill="#1e1e1e" text-anchor="middle" style="white-space: pre;" direction="ltr" dominant-baseline="alphabetic">Realiza petición a recurso</text><text x="103.35994720458984" y="34.016" font-family="Virgil, Segoe UI Emoji" font-size="16px" fill="#1e1e1e" text-anchor="middle" style="white-space: pre;" direction="ltr" dominant-baseline="alphabetic">protegido</text></g><g mask="url(#mask-G7lu6vNKNPC5jEQQMMo0D)" stroke-linecap="round"><g transform="translate(388.5 605) rotate(0 172.5 0)"><path d="M0.98 -0.04 C58.39 0, 287.04 1.03, 344.5 0.84 M0.04 -1.1 C57.24 -1.44, 285.73 -0.95, 343.3 -0.84" stroke="#1e1e1e" stroke-width="2" fill="none"></path></g><g transform="translate(388.5 605) rotate(0 172.5 0)"><path d="M319.79 7.67 C326.86 4.05, 335.49 3.59, 343.3 -0.84 M319.79 7.67 C325.5 6.89, 329.09 4.24, 343.3 -0.84" stroke="#1e1e1e" stroke-width="2" fill="none"></path></g><g transform="translate(388.5 605) rotate(0 172.5 0)"><path d="M319.82 -9.43 C326.96 -7.83, 335.59 -3.08, 343.3 -0.84 M319.82 -9.43 C325.5 -6.72, 329.08 -5.89, 343.3 -0.84" stroke="#1e1e1e" stroke-width="2" fill="none"></path></g></g><mask id="mask-G7lu6vNKNPC5jEQQMMo0D"><rect x="0" y="0" fill="#fff" width="833.5" height="705"></rect><rect x="442.9760437011719" y="585" fill="#000" width="236.04791259765625" height="40" opacity="1"></rect></mask><g transform="translate(442.9760437011719 585) rotate(0 117.7935575243971 19.822406045984735)"><text x="118.02395629882812" y="14.016" font-family="Virgil, Segoe UI Emoji" font-size="16px" fill="#1e1e1e" text-anchor="middle" style="white-space: pre;" direction="ltr" dominant-baseline="alphabetic">Envía JWT en el encabezado </text><text x="118.02395629882812" y="34.016" font-family="Virgil, Segoe UI Emoji" font-size="16px" fill="#1e1e1e" text-anchor="middle" style="white-space: pre;" direction="ltr" dominant-baseline="alphabetic">de la solicitud</text></g><g mask="url(#mask-izTXiqJTHMu_CP8wzQQrJ)" stroke-linecap="round"><g transform="translate(738.5 648.5) rotate(0 33.78854151989913 10.043195793869447)"><path d="M-0.5 0.84 C9.55 -0.93, 51.14 -15.47, 61.28 -10.65 C71.42 -5.84, 70.19 24.31, 60.33 29.75 C50.46 35.18, 12.04 23.45, 2.09 21.97 M1.44 0.24 C11.32 -1.42, 51.07 -14.79, 60.74 -9.72 C70.42 -4.65, 69.72 25.73, 59.47 30.67 C49.22 35.61, 8.72 21.51, -0.75 19.93" stroke="#1e1e1e" stroke-width="2" fill="none"></path></g><g transform="translate(738.5 648.5) rotate(0 33.78854151989913 10.043195793869447)"><path d="M24.14 17.54 C16.04 19.65, 3.22 18.97, -0.75 19.93 M24.14 17.54 C17.95 18.2, 12.95 18.13, -0.75 19.93" stroke="#1e1e1e" stroke-width="2" fill="none"></path></g><g transform="translate(738.5 648.5) rotate(0 33.78854151989913 10.043195793869447)"><path d="M19.85 34.1 C13.39 29.91, 2.21 22.91, -0.75 19.93 M19.85 34.1 C14.53 30.8, 10.55 26.8, -0.75 19.93" stroke="#1e1e1e" stroke-width="2" fill="none"></path></g></g><mask id="mask-izTXiqJTHMu_CP8wzQQrJ"><rect x="0" y="0" fill="#fff" width="899" height="788.5"></rect><rect x="756.6067219095955" y="648.597500842414" fill="#000" width="100.3359375" height="20" opacity="1"></rect></mask><g transform="translate(756.6067219095954 648.5975008424141) rotate(0 15.681819610303592 9.945694951455511)"><text x="50.16796875" y="14.016" font-family="Virgil, Segoe UI Emoji" font-size="16px" fill="#1e1e1e" text-anchor="middle" style="white-space: pre;" direction="ltr" dominant-baseline="alphabetic">Verifica JWT</text></g><g mask="url(#mask-C36Wx4j7k30upW2BdYIJl)" stroke-linecap="round"><g transform="translate(736.5 768) rotate(0 -172.5 0)"><path d="M0.78 -1.15 C-56.66 -1.42, -287.72 -1.11, -345.17 -0.75" stroke="#1e1e1e" stroke-width="2.5" fill="none" stroke-dasharray="1.5 8"></path></g><g transform="translate(736.5 768) rotate(0 -172.5 0)"><path d="M-321.71 -9.38 C-329.64 -7.29, -335.04 -2.95, -345.17 -0.75" stroke="#1e1e1e" stroke-width="2.5" fill="none" stroke-dasharray="1.5 6"></path></g><g transform="translate(736.5 768) rotate(0 -172.5 0)"><path d="M-321.65 7.72 C-329.72 5.39, -335.14 5.31, -345.17 -0.75" stroke="#1e1e1e" stroke-width="2.5" fill="none" stroke-dasharray="1.5 6"></path></g></g><mask id="mask-C36Wx4j7k30upW2BdYIJl"><rect x="0" y="0" fill="#fff" width="1181.5" height="868"></rect><rect x="468.0320587158203" y="758" fill="#000" width="191.93588256835938" height="20" opacity="1"></rect></mask><g transform="translate(468.0320587158203 758.0000000000001) rotate(0 96.27250192239876 8.996453070517859)"><text x="95.96794128417969" y="14.016" font-family="Virgil, Segoe UI Emoji" font-size="16px" fill="#1e1e1e" text-anchor="middle" style="white-space: pre;" direction="ltr" dominant-baseline="alphabetic">Envía datos del recurso</text></g><g mask="url(#mask-hVhDvro7Q1MkkB06MLs4m)" stroke-linecap="round"><g transform="translate(385.5 812) rotate(0 -148 0)"><path d="M-0.17 -0.75 C-49.45 -0.4, -245.54 0.87, -294.91 0.97" stroke="#1e1e1e" stroke-width="2.5" fill="none" stroke-dasharray="1.5 8"></path></g><g transform="translate(385.5 812) rotate(0 -148 0)"><path d="M-271.46 -7.69 C-281.36 -2.74, -287.05 -2, -294.91 0.97" stroke="#1e1e1e" stroke-width="2.5" fill="none" stroke-dasharray="1.5 6"></path></g><g transform="translate(385.5 812) rotate(0 -148 0)"><path d="M-271.38 9.42 C-281.15 8.12, -286.86 2.61, -294.91 0.97" stroke="#1e1e1e" stroke-width="2.5" fill="none" stroke-dasharray="1.5 6"></path></g></g><mask id="mask-hVhDvro7Q1MkkB06MLs4m"><rect x="0" y="0" fill="#fff" width="781.5" height="912"></rect><rect x="158.5960464477539" y="792" fill="#000" width="157.8079071044922" height="40" opacity="1"></rect></mask><g transform="translate(158.5960464477539 792.0000000000001) rotate(0 79.3625417239964 20.10963855907322)"><text x="78.9039535522461" y="14.016" font-family="Virgil, Segoe UI Emoji" font-size="16px" fill="#1e1e1e" text-anchor="middle" style="white-space: pre;" direction="ltr" dominant-baseline="alphabetic">Muestra datos del </text><text x="78.9039535522461" y="34.016" font-family="Virgil, Segoe UI Emoji" font-size="16px" fill="#1e1e1e" text-anchor="middle" style="white-space: pre;" direction="ltr" dominant-baseline="alphabetic">recurso</text></g><g mask="url(#mask-s445dW7G6dycg2JGB421s)" stroke-linecap="round"><g transform="translate(736.5 901) rotate(0 -172.5 0)"><path d="M1.09 0.97 C-56.44 1.08, -287.8 0.18, -345.36 -0.13" stroke="#1e1e1e" stroke-width="2.5" fill="none" stroke-dasharray="1.5 8"></path></g><g transform="translate(736.5 901) rotate(0 -172.5 0)"><path d="M-321.83 -8.57 C-326.98 -6.56, -335.54 -2.34, -345.36 -0.13" stroke="#1e1e1e" stroke-width="2.5" fill="none" stroke-dasharray="1.5 6"></path></g><g transform="translate(736.5 901) rotate(0 -172.5 0)"><path d="M-321.91 8.53 C-326.93 5.66, -335.47 4.99, -345.36 -0.13" stroke="#1e1e1e" stroke-width="2.5" fill="none" stroke-dasharray="1.5 6"></path></g></g><mask id="mask-s445dW7G6dycg2JGB421s"><rect x="0" y="0" fill="#fff" width="1181.5" height="1001"></rect><rect x="455.6720504760742" y="891" fill="#000" width="216.65589904785156" height="20" opacity="1"></rect></mask><g transform="translate(455.6720504760742 891.0000000000001) rotate(0 108.69083454683425 10.427156031952023)"><text x="108.32794952392578" y="14.016" font-family="Virgil, Segoe UI Emoji" font-size="16px" fill="#1e1e1e" text-anchor="middle" style="white-space: pre;" direction="ltr" dominant-baseline="alphabetic">Envia error de autorización</text></g><g mask="url(#mask-tfIvn0j2jfNFpJxWNGsOP)" stroke-linecap="round"><g transform="translate(385.5 945) rotate(0 -148 0)"><path d="M-0.36 -0.13 C-49.76 -0.44, -246.17 -0.98, -295.28 -0.9" stroke="#1e1e1e" stroke-width="2.5" fill="none" stroke-dasharray="1.5 8"></path></g><g transform="translate(385.5 945) rotate(0 -148 0)"><path d="M-271.78 -9.43 C-281.11 -4.97, -291.58 -1.25, -295.28 -0.9" stroke="#1e1e1e" stroke-width="2.5" fill="none" stroke-dasharray="1.5 6"></path></g><g transform="translate(385.5 945) rotate(0 -148 0)"><path d="M-271.8 7.67 C-281.26 5.45, -291.72 2.48, -295.28 -0.9" stroke="#1e1e1e" stroke-width="2.5" fill="none" stroke-dasharray="1.5 6"></path></g></g><mask id="mask-tfIvn0j2jfNFpJxWNGsOP"><rect x="0" y="0" fill="#fff" width="781.5" height="1045"></rect><rect x="164.75604248046875" y="925" fill="#000" width="145.4879150390625" height="40" opacity="1"></rect></mask><g transform="translate(164.75604248046875 925.0000000000001) rotate(0 72.91997804716232 19.482532207494472)"><text x="72.74395751953125" y="14.016" font-family="Virgil, Segoe UI Emoji" font-size="16px" fill="#1e1e1e" text-anchor="middle" style="white-space: pre;" direction="ltr" dominant-baseline="alphabetic">Muestra error de </text><text x="72.74395751953125" y="34.016" font-family="Virgil, Segoe UI Emoji" font-size="16px" fill="#1e1e1e" text-anchor="middle" style="white-space: pre;" direction="ltr" dominant-baseline="alphabetic">autorización</text></g><g stroke-linecap="round"><g transform="translate(74 261) rotate(0 337.5 0)"><path d="M0 0 C181.41 -0.98, 364.26 -1.15, 675 0" stroke="#adb5bd" stroke-width="2.5" fill="none" stroke-dasharray="1.5 8"></path></g></g><mask></mask><g stroke-linecap="round"><g transform="translate(749 261) rotate(0 0 133)"><path d="M0 0 C-1.08 96.58, -1.6 190.83, 0 266" stroke="#adb5bd" stroke-width="2.5" fill="none" stroke-dasharray="1.5 8"></path></g></g><mask></mask><g stroke-linecap="round"><g transform="translate(74 527) rotate(0 337.5 0)"><path d="M0 0 C255.83 -1.81, 511.15 -1.92, 675 0" stroke="#adb5bd" stroke-width="2.5" fill="none" stroke-dasharray="1.5 8"></path></g></g><mask></mask><g stroke-linecap="round"><g transform="translate(74 261) rotate(0 0 133)"><path d="M0 0 C-1.1 94.26, 0.41 189.5, 0 266" stroke="#adb5bd" stroke-width="2.5" fill="none" stroke-dasharray="1.5 8"></path></g></g><mask></mask><g stroke-linecap="round"><g transform="translate(74 399) rotate(0 337.5 0)"><path d="M0 0 C180 1.02, 359.8 1.28, 675 0" stroke="#adb5bd" stroke-width="2.5" fill="none" stroke-dasharray="1.5 8"></path></g></g><mask></mask><g stroke-linecap="round"><g transform="translate(74 699) rotate(0 337.5 0)"><path d="M0 0 C170.98 0.86, 340.74 0.11, 675 0" stroke="#adb5bd" stroke-width="2.5" fill="none" stroke-dasharray="1.5 8"></path></g></g><mask></mask><g stroke-linecap="round"><g transform="translate(749 699) rotate(0 0 133)"><path d="M0 0 C-0.81 69.96, -0.56 143.51, 0 266" stroke="#adb5bd" stroke-width="2.5" fill="none" stroke-dasharray="1.5 8"></path></g></g><mask></mask><g stroke-linecap="round"><g transform="translate(74 965) rotate(0 337.5 0)"><path d="M0 0 C202.74 2.84, 407.48 3.21, 675 0" stroke="#adb5bd" stroke-width="2.5" fill="none" stroke-dasharray="1.5 8"></path></g></g><mask></mask><g stroke-linecap="round"><g transform="translate(74 699) rotate(0 0 133)"><path d="M0 0 C-0.03 56.43, -0.29 111.59, 0 266" stroke="#adb5bd" stroke-width="2.5" fill="none" stroke-dasharray="1.5 8"></path></g></g><mask></mask><g stroke-linecap="round"><g transform="translate(74 837) rotate(0 337.5 0)"><path d="M0 0 C230.56 -1.61, 460 -1.56, 675 0" stroke="#adb5bd" stroke-width="2.5" fill="none" stroke-dasharray="1.5 8"></path></g></g><mask></mask><g transform="translate(357.7026062011719 269) rotate(0 86.24794006347656 10)"><text x="0" y="14.016" font-family="Virgil, Segoe UI Emoji" font-size="16px" fill="#1e1e1e" text-anchor="start" style="white-space: pre;" direction="ltr" dominant-baseline="alphabetic">[Credenciales válidas]</text></g><g transform="translate(326.04563903808594 407) rotate(0 91.7359390258789 10)"><text x="0" y="14.016" font-family="Virgil, Segoe UI Emoji" font-size="16px" fill="#1e1e1e" text-anchor="start" style="white-space: pre;" direction="ltr" dominant-baseline="alphabetic">[Credenciales inválidas]</text></g><g transform="translate(391.57165908813477 707) rotate(0 50.91197204589844 10)"><text x="0" y="14.016" font-family="Virgil, Segoe UI Emoji" font-size="16px" fill="#1e1e1e" text-anchor="start" style="white-space: pre;" direction="ltr" dominant-baseline="alphabetic">[JWT válido]</text></g><g transform="translate(324.55625915527344 845) rotate(0 92.72794342041016 10)"><text x="0" y="14.016" font-family="Virgil, Segoe UI Emoji" font-size="16px" fill="#1e1e1e" text-anchor="start" style="white-space: pre;" direction="ltr" dominant-baseline="alphabetic">[JWT inválido/expirado]</text></g><g stroke-linecap="round" transform="translate(74 261) rotate(0 17 15)"><path d="M-0.24 0.67 L33.66 0.47 L34.03 29.42 L0.19 29.34" stroke="none" stroke-width="0" fill="#e9ecef"></path><path d="M0 0 C10.85 -0.07, 21.59 -0.77, 34 0 M0 0 C7.75 -0.2, 16.05 -0.15, 34 0 M34 0 C33.74 11.51, 34.34 21.86, 34 30 M34 0 C34 7.96, 34.22 17.02, 34 30 M34 30 C24.16 29.9, 13.35 30.67, 0 30 M34 30 C25.93 29.75, 18.64 30.58, 0 30 M0 30 C0.21 20.53, -0.46 10.6, 0 0 M0 30 C0.58 19.3, -0.28 8.52, 0 0" stroke="#adb5bd" stroke-width="2" fill="none"></path></g><g transform="translate(79.04000854492188 266) rotate(0 11.959991455078125 10)"><text x="11.959991455078125" y="14.016" font-family="Virgil, Segoe UI Emoji" font-size="16px" fill="#000" text-anchor="middle" style="white-space: pre;" direction="ltr" dominant-baseline="alphabetic">alt</text></g><g stroke-linecap="round" transform="translate(74 699) rotate(0 17 15)"><path d="M-0.34 0.47 L34.03 -0.58 L34.19 29.34 L0.03 29.08" stroke="none" stroke-width="0" fill="#e9ecef"></path><path d="M0 0 C12.02 -0.68, 23.53 0.95, 34 0 M0 0 C9.88 -0.1, 19.9 -0.32, 34 0 M34 0 C34.44 8.27, 33.75 19.08, 34 30 M34 0 C34.02 6.89, 33.99 12.48, 34 30 M34 30 C22.45 30.57, 9.79 29.3, 0 30 M34 30 C21.53 30.35, 9.45 30.3, 0 30 M0 30 C-0.38 23.96, 0.58 16.77, 0 0 M0 30 C-0.52 23.64, -0.27 17.06, 0 0" stroke="#adb5bd" stroke-width="2" fill="none"></path></g><g transform="translate(79.04000854492188 704) rotate(0 11.959991455078125 10)"><text x="11.959991455078125" y="14.016" font-family="Virgil, Segoe UI Emoji" font-size="16px" fill="#000" text-anchor="middle" style="white-space: pre;" direction="ltr" dominant-baseline="alphabetic">alt</text></g></svg>