<svg width="1920" height="1080" viewBox="0 0 1920 1080" xmlns="http://www.w3.org/2000/svg"><rect width="1920" height="1080" fill="#0c112e"/><path d="M 0,1080 C 0,1080 0,216 0,216 C 66.73846153846154,215.74871794871797 133.47692307692307,215.4974358974359 280,227 C 426.5230769230769,238.5025641025641 652.8307692307692,261.75897435897434 758,269 C 863.1692307692308,276.24102564102566 847.1999999999999,267.4666666666667 902,241 C 956.8000000000001,214.53333333333333 1082.3692307692309,170.37435897435896 1195,170 C 1307.6307692307691,169.62564102564104 1407.323076923077,213.03589743589745 1526,228 C 1644.676923076923,242.96410256410255 1782.3384615384616,229.48205128205126 1920,216 C 1920,216 1920,1080 1920,1080 Z" fill="#1d439a" opacity="0.12"/><path d="M 0,1080 C 0,1080 0,432 0,432 C 85.77692307692308,455.1102564102564 171.55384615384617,478.2205128205128 269,475 C 366.44615384615383,471.7794871794872 475.5615384615385,442.22820512820516 604,427 C 732.4384615384615,411.77179487179484 880.2,410.86666666666673 992,403 C 1103.8,395.13333333333327 1179.6384615384613,380.30512820512814 1280,369 C 1380.3615384615387,357.69487179487186 1505.246153846154,349.91282051282053 1616,361 C 1726.753846153846,372.08717948717947 1823.376923076923,402.04358974358973 1920,432 C 1920,432 1920,1080 1920,1080 Z" fill="#1d439a" opacity="0.24"/><path d="M 0,1080 C 0,1080 0,648 0,648 C 127.75897435897437,686.3538461538461 255.51794871794874,724.7076923076922 356,709 C 456.48205128205126,693.2923076923078 529.6871794871796,623.523076923077 638,607 C 746.3128205128204,590.476923076923 889.7333333333333,627.1999999999999 978,639 C 1066.2666666666667,650.8000000000001 1099.3794871794873,637.6769230769231 1172,645 C 1244.6205128205127,652.3230769230769 1356.748717948718,680.0923076923077 1488,684 C 1619.251282051282,687.9076923076923 1769.625641025641,667.9538461538461 1920,648 C 1920,648 1920,1080 1920,1080 Z" fill="#1d439a" opacity="0.36"/><path d="M 0,1080 C 0,1080 0,864 0,864 C 56.66666666666666,841.5641025641025 113.33333333333331,819.1282051282052 237,843 C 360.6666666666667,866.8717948717948 551.3333333333335,937.0512820512819 711,926 C 870.6666666666665,914.9487179487181 999.3333333333333,822.6666666666667 1059,806 C 1118.6666666666667,789.3333333333333 1109.3333333333335,848.2820512820512 1210,866 C 1310.6666666666665,883.7179487179488 1521.3333333333335,860.2051282051283 1658,853 C 1794.6666666666665,845.7948717948717 1857.3333333333333,854.8974358974358 1920,864 C 1920,864 1920,1080 1920,1080 Z" fill="#1d439a" opacity="0.48"/></svg>