<svg xmlns="http://www.w3.org/2000/svg" version="1.1" xmlns:xlink="http://www.w3.org/1999/xlink" xmlns:svgjs="http://svgjs.dev/svgjs" width="250" height="130" preserveAspectRatio="none" viewBox="0 0 250 130"><g mask="url(&quot;#SvgjsMask1027&quot;)" fill="none"><rect width="250" height="130" x="0" y="0" fill="rgba(25, 55, 130, 1)"></rect><path d="M0,121.499C22.121,125.86,42.742,107.874,60.009,93.375C75.846,80.078,84.094,61.102,93.724,42.802C103.952,23.367,122.937,4.441,118.084,-16.978C113.203,-38.52,86.478,-45.891,70.238,-60.862C56.196,-73.806,47.009,-92.456,29.077,-99.028C10.675,-105.772,-9.964,-103.427,-28.495,-97.045C-46.516,-90.839,-60.102,-77.242,-73.512,-63.698C-87.813,-49.254,-104.794,-35.554,-109.055,-15.68C-113.412,4.641,-108.666,27.186,-96.632,44.13C-85.298,60.088,-61.793,60.144,-46.514,72.377C-28.547,86.762,-22.581,117.048,0,121.499" fill="#132962"></path><path d="M250 210.97C264.894 207.95 271.039 190.332 282.023 179.829 290.538 171.687 299.98 165.39600000000002 307.307 156.171 316.727 144.311 331.065 133.522 330.83299999999997 118.378 330.601 103.238 316.618 92.287 306.162 81.33500000000001 296.148 70.84700000000001 286.007 58.19499999999999 271.623 56.36 257.551 54.56399999999999 246.778 68.753 232.968 71.99600000000001 217.929 75.527 200.35399999999998 67.131 187.745 76.056 174.797 85.22200000000001 167.667 102.30799999999999 167.737 118.172 167.804 133.472 180.934 144.751 188.106 158.266 194.764 170.813 197.564 185.555 208.379 194.764 219.949 204.61599999999999 235.107 213.99 250 210.97" fill="#1f45a3"></path></g><defs><mask id="SvgjsMask1027"><rect width="250" height="130" fill="#ffffff"></rect></mask></defs></svg>
